<?xml version="1.0" encoding="UTF-8" standalone="no"?><!DOCTYPE svg PUBLIC "-//W3C//DTD SVG 1.1//EN" "http://www.w3.org/Graphics/SVG/1.1/DTD/svg11.dtd"><svg width="100%" height="100%" viewBox="0 0 2717 2717" version="1.1" xmlns="http://www.w3.org/2000/svg" xmlns:xlink="http://www.w3.org/1999/xlink" xml:space="preserve" xmlns:serif="http://www.serif.com/" style="fill-rule:evenodd;clip-rule:evenodd;stroke-linejoin:round;stroke-miterlimit:2;"><g><path d="M2620.85,1313.83l-154.017,-27.681c-4.605,-75.864 -16.885,-149.678 -36.841,-221.954l136.108,-76.89c-33.771,-109.183 -81.358,-211.702 -141.225,-306.02l-146.342,52.797c-41.958,-61.512 -89.033,-118.41 -141.736,-170.695l78.799,-134.813c-81.87,-76.377 -174.996,-141.989 -275.798,-194.274l-100.802,119.948c-64.984,-31.269 -133.55,-56.386 -204.674,-74.327l1.535,-156.342c-53.727,-12.302 -108.989,-20.504 -165.274,-25.63c-57.82,-5.126 -115.641,-6.151 -171.926,-4.101l-27.631,154.292c-71.636,5.126 -141.225,18.454 -209.279,36.907l-76.753,-135.838c-109.5,33.319 -212.861,82.528 -308.034,143.527l53.215,147.115c-57.308,39.47 -110.524,84.579 -159.645,133.788l-134.573,-79.452c-77.777,83.04 -144.296,176.333 -197.511,278.34l119.223,100.982c-29.166,61.511 -53.215,125.586 -71.636,193.249l-156.064,-1.025c-13.304,57.923 -23.537,118.922 -29.166,180.434c-4.605,53.822 -6.14,106.62 -4.093,159.417l153.505,27.681c4.605,69.713 15.351,137.376 32.748,203.501l-136.108,76.889c31.724,110.721 78.799,215.291 138.666,312.172l146.342,-53.31c38.376,57.923 81.87,112.259 130.48,162.493l-79.823,135.326c81.358,78.427 173.461,146.603 274.775,201.451l100.29,-119.436c62.425,31.269 128.433,57.924 197.51,77.403l-1.023,156.854c62.425,15.378 126.897,26.655 192.905,33.319c48.098,3.588 96.197,5.639 143.272,4.613l27.631,-153.266c73.17,-4.101 145.318,-14.353 214.907,-32.294l77.264,136.351c109.501,-31.781 213.373,-77.915 308.546,-136.351l-52.703,-146.602c62.425,-41.008 120.246,-87.142 172.949,-139.427l135.085,79.453c77.264,-80.991 143.783,-172.746 197.51,-272.702l-119.734,-102.007c33.26,-66.637 60.379,-136.863 79.823,-210.165l156.064,1.025c13.815,-57.41 23.537,-117.384 28.654,-178.383c4.605,-52.285 6.14,-104.57 4.605,-156.342" style="fill:none;fill-rule:nonzero;"/><path d="M1357.5,2639.41c-34.283,-0 -71.636,-1.538 -113.083,-5.126c-66.519,-6.151 -132.014,-17.941 -195.463,-33.319l-12.281,-3.076l0.512,-157.367c-59.867,-17.941 -119.734,-41.52 -177.043,-69.713l-100.802,119.435l-11.257,-6.151c-101.825,-55.361 -194.952,-124.049 -277.845,-204.014l-9.21,-8.714l79.823,-135.838c-42.47,-45.109 -81.87,-93.805 -117.176,-145.578l-146.853,53.31l-6.652,-10.764c-61.402,-99.957 -108.477,-206.064 -140.202,-315.76l-3.582,-12.302l136.62,-77.403c-14.327,-58.436 -24.049,-119.435 -29.166,-181.972l-153.505,-27.68l-0.512,-12.815c-2.047,-52.797 -0.512,-107.133 4.093,-160.955c5.629,-60.999 15.351,-122.511 29.678,-182.997l3.07,-12.303l156.576,1.538c16.374,-58.949 38.376,-116.872 63.96,-172.745l-119.222,-100.982l6.14,-11.277c54.239,-103.545 121.781,-198.375 200.069,-281.928l8.698,-9.227l135.085,79.452c45.028,-44.596 93.127,-84.578 142.76,-119.947l-53.727,-147.116l10.746,-6.664c98.755,-63.049 203.65,-112.258 312.127,-145.065l12.281,-3.588l77.264,135.839c63.449,-16.404 126.386,-27.681 188.3,-33.319l27.631,-154.805l12.792,-0.512c58.332,-2.563 117.176,-1.025 173.973,4.101c56.797,5.126 113.082,13.84 167.321,26.142l12.28,3.076l-1.023,156.342c63.961,16.915 125.875,39.47 184.207,67.15l100.801,-120.46l11.258,6.151c101.313,52.797 195.463,118.922 279.379,196.837l9.211,8.714l-78.8,135.326c46.564,46.646 89.545,98.419 127.921,153.779l146.854,-52.797l6.652,10.764c60.89,95.343 108.989,199.913 143.272,310.121l3.581,12.303l-136.108,76.377c17.398,67.15 28.655,134.3 33.26,200.425l154.529,27.68l0.511,12.815c1.535,56.386 -0.511,108.158 -5.117,158.905c-5.628,63.05 -15.35,123.536 -29.166,180.435l-3.07,12.302l-156.575,-1.025c-17.909,64.587 -42.47,128.149 -72.148,190.173l119.223,100.982l-6.141,11.277c-54.238,100.469 -121.269,193.249 -200.068,276.29l-8.699,9.227l-135.596,-79.453c-48.099,46.134 -100.291,88.68 -156.064,125.587l53.215,147.115l-11.257,6.664c-98.243,59.974 -203.139,106.62 -312.639,138.401l-12.281,3.588l-77.776,-136.863c-61.402,14.865 -126.386,24.604 -193.417,29.218l-27.631,153.779l-12.792,0.512c-10.234,-0.512 -20.979,-0.512 -31.724,-0.512m-289.102,-66.125c58.332,13.84 118.199,24.092 178.578,29.73c47.587,3.589 90.056,5.126 128.433,4.614l27.631,-152.754l12.792,-0.513c74.194,-4.101 145.318,-14.865 211.837,-31.781l11.769,-3.075l77.264,135.838c98.244,-29.731 192.906,-71.251 281.939,-124.561l-52.704,-146.09l10.746,-6.664c60.89,-39.983 118.199,-86.117 170.391,-137.376l8.698,-8.714l134.573,78.94c70.101,-75.352 130.992,-158.906 180.625,-248.61l-118.199,-99.956l5.628,-11.278c33.26,-67.15 59.867,-136.863 78.8,-207.089l3.07,-11.79l155.552,1.026c11.769,-51.773 20.467,-106.621 25.073,-163.519c4.093,-45.621 6.14,-92.267 5.116,-142.502l-153.505,-27.68l-0.512,-12.815c-4.093,-72.276 -16.374,-145.578 -35.818,-218.366l-3.07,-11.79l135.597,-76.89c-31.725,-98.931 -75.218,-192.736 -128.945,-279.365l-145.83,52.285l-6.652,-10.252c-41.958,-61.512 -89.033,-117.898 -140.201,-168.132l-8.699,-8.714l78.288,-134.301c-76.241,-69.2 -160.669,-129.174 -251.749,-177.358l-100.29,119.435l-11.257,-5.639c-63.449,-30.756 -130.992,-55.36 -201.604,-73.301l-11.769,-3.076l1.023,-155.829c-48.61,-10.765 -99.266,-18.454 -150.435,-22.555c-51.68,-4.613 -104.384,-6.151 -157.087,-4.613l-27.631,153.779l-12.281,1.025c-67.542,5.126 -136.619,17.429 -206.209,36.395l-11.768,3.075l-76.753,-135.325c-97.22,30.756 -191.882,74.839 -281.427,131.225l53.216,146.602l-10.234,7.177c-54.75,37.932 -107.966,82.015 -157.599,131.737l-8.699,8.714l-134.061,-79.452c-70.101,75.864 -130.48,161.468 -180.113,254.248l118.711,100.469l-5.117,11.277c-29.166,60.999 -53.215,125.074 -70.613,190.174l-3.07,11.789l-158.11,-0.512c-12.281,54.848 -20.979,110.721 -26.096,166.081c-4.094,48.184 -5.629,96.881 -4.605,144.553l152.993,27.167l1.024,12.303c4.605,69.2 15.862,136.863 32.236,200.938l3.07,11.79l-135.596,76.889c29.677,98.931 72.147,194.787 126.386,285.004l146.342,-53.31l6.651,10.252c37.865,57.411 81.358,111.234 128.433,160.443l8.187,8.714l-79.311,134.813c75.218,71.251 159.646,133.275 250.726,184.022l99.778,-118.922l11.257,5.638c62.937,31.782 128.433,57.411 194.44,76.377l11.769,3.589l-1.023,156.342Z" style="fill:none;fill-rule:nonzero;stroke:#fff;stroke-width:41.67px;"/><ellipse cx="1358.62" cy="1358.1" rx="909.192" ry="910.813" style="fill:none;stroke:#fff;stroke-width:83.33px;stroke-linecap:round;stroke-miterlimit:1.5;"/><g transform="matrix(4.16667,0,0,4.16667,-291.882,-86.7745)"><text x="291.083px" y="240.39px" style="font-family:'Impact';font-stretch:condensed;font-size:80px;fill:#fff;">HECHO</text><text x="357.841px" y="332.39px" style="font-family:'Impact';font-stretch:condensed;font-size:80px;fill:#fff;">EN</text><text x="275.712px" y="424.39px" style="font-family:'Impact';font-stretch:condensed;font-size:80px;fill:#fff;">PUERTO</text><g transform="matrix(80,0,0,80,473.192,516.39)"></g><text x="319.051px" y="516.39px" style="font-family:'Impact';font-stretch:condensed;font-size:80px;fill:#fff;">RICO</text></g></g></svg>