<?xml version="1.0" encoding="UTF-8"?>
<svg id="Layer_1" data-name="Layer 1" xmlns="http://www.w3.org/2000/svg" viewBox="0 0 575.74 141.73">
  <defs>
    <style>
      .cls-1 {
        fill: #2d2417;
        stroke-width: 0px;
      }
    </style>
  </defs>
  <g>
    <path class="cls-1" d="M115.36,101.88h-54.14v31h57.22c8.85,0,16.03-7.06,16.03-15.76v-30.76c-1.72,8.84-9.61,15.52-19.11,15.52Z"/>
    <path class="cls-1" d="M74.61,80.46h31.66c2.48,0,4.49-1.98,4.49-4.42v-19.03c0-2.44-2.01-4.42-4.49-4.42h-30.67l13.43,13.43-14.42,14.42Z"/>
    <path class="cls-1" d="M117.84,8.45H34.21l23.34,23.51h57.06c9.99,0,18.29,7.03,20.1,16.33v-23.25c0-9.16-7.55-16.59-16.87-16.59Z"/>
    <path class="cls-1" d="M83.86,66.04l-13.43-13.43h-24.97l-.19-9.98-6.4,9.98h-8.18v-20.64h21.68L29.44,8.82h-8.29c-1.96,0-3.93.31-5.73,1.11-.01,0-.02,0-.03.01-5.84,2.61-9.9,8.38-9.9,15.1v91.37c0,9.16,7.55,16.59,16.87,16.59h8.34v-52.54h9.64l5.78,5.31-.11-5.31h23.44l14.42-14.42ZM44.29,68.76l.26,13.59-9.14-8.4-13.57,7.94,8.23-12.84-9.09-8.35h14.45l8.45-13.17.26,13.17h13.95l-13.79,8.06Z"/>
  </g>
  <g>
    <path class="cls-1" d="M178.11,35.04h-.52v27.02h-15.25V10.39c0-1.48.67-2.22,2.15-2.22h57.44c1.48,0,2.15.74,2.15,2.22v14.51l-14.06,4.74h-.67v-7.18c0-.59-.22-.81-.67-.81h-29.68c-1.04,0-1.41.37-1.41,1.33v10.66h24.72v12.07h-20.21l-4-10.66Z"/>
    <path class="cls-1" d="M230.51,62.06h-17.62v-.59l27.02-51.52c.67-1.33,1.11-1.78,2.81-1.78h18.58c1.7,0,2.22.44,2.96,1.78l26.8,51.52v.59h-46.11l-4.44-11.7v-1.48h15.1c6.37,0,9.03.07,11.55.3l.22-.52c-1.26-2.15-2.29-3.78-5.4-10.07l-8.51-17.02c-.22-.37-.52-.52-1.04-.52h-.89c-.44,0-.74.15-.96.52l-20.06,40.49Z"/>
    <path class="cls-1" d="M368.26,62.06V21.57c0-.74-.37-1.18-1.11-1.18h-.81c-.67,0-1.11.37-1.33.96l-14.73,39.01c-.52,1.33-1.33,1.7-2.89,1.7h-17.54c-1.63,0-2.37-.37-2.89-1.7l-14.66-39.01c-.22-.59-.67-.96-1.41-.96h-.74c-.74,0-1.18.44-1.18,1.18v40.49h-14.28V10.39c0-1.48.67-2.22,2.07-2.22h24.35c1.7,0,2.67.74,3.11,2l13.25,38.49c.07.3.3.44.74.44h1.33c.37,0,.52-.15.59-.44l13.32-38.49c.44-1.26,1.33-2,3.04-2h24.06c1.41,0,2.07.74,2.07,2.22v51.67h-14.36Z"/>
    <path class="cls-1" d="M388.76,62.06V8.17h15.25v53.89h-15.25Z"/>
    <path class="cls-1" d="M425.4,8.17v38.05c0,1.18.44,1.78,1.78,1.78h42.19v14.06h-55.29c-2.89,0-3.92-1.48-3.92-4.15V8.17h15.25Z"/>
    <path class="cls-1" d="M473.14,62.06V8.17h15.25v53.89h-15.25Z"/>
    <path class="cls-1" d="M509.71,62.06h-17.62v-.59l27.02-51.52c.67-1.33,1.11-1.78,2.81-1.78h18.58c1.7,0,2.22.44,2.96,1.78l26.8,51.52v.59h-46.12l-4.44-11.7v-1.48h15.1c6.37,0,9.03.07,11.55.3l.22-.52c-1.26-2.15-2.29-3.78-5.4-10.07l-8.51-17.02c-.22-.37-.52-.52-1.04-.52h-.89c-.44,0-.74.15-.96.52l-20.06,40.49Z"/>
  </g>
  <g>
    <path class="cls-1" d="M178.11,109.95h-.52v23.61h-15.25v-51.67c0-1.48.67-2.22,2.15-2.22h41.75c14.66,0,19.99,7.25,19.99,19.17v4.37c0,12.36-5.48,18.51-19.25,18.51h-24.35l-4.52-11.77ZM178.56,93.15c-.67,0-.96.37-.96,1.04v14.36h26.72c4.89,0,6.66-1.85,6.66-6.29v-2.67c0-5.03-1.78-6.44-6.66-6.44h-25.76Z"/>
    <path class="cls-1" d="M248.21,107.58v25.98h-15.25v-51.67c0-1.48.67-2.22,2.07-2.22h42.12c13.4,0,18.21,6.59,18.21,17.25v3.85c0,10.44-4.81,16.88-17.62,16.88h-1.55c-1.48,0-2.59,0-3.63-.07v.52c1.26,1.18,2.59,2.67,3.77,4.15l8.59,10.73v.59h-17.17l-19.02-25.98h-.52ZM249.24,93.15c-.59,0-1.04.37-1.04,1.26v11.77h26.2c4,0,5.62-1.33,5.62-5.7v-1.85c0-4.15-1.63-5.48-5.62-5.48h-25.17Z"/>
    <path class="cls-1" d="M301.87,133.56v-53.89h15.25v53.89h-15.25Z"/>
    <path class="cls-1" d="M350.2,79.67c2.22,0,2.96.67,3.7,2.15l20.43,38.71c.3.52.74.89,1.41.89h.81c.74,0,1.18-.44,1.18-1.18v-40.56h13.84v51.74c0,1.41-.67,2.15-2.07,2.15h-21.91c-2.07,0-2.89-.52-3.78-2.15l-21.17-38.64c-.3-.59-.67-.89-1.41-.89h-.74c-.81,0-1.18.44-1.18,1.18v40.49h-13.84v-51.67c0-1.48.67-2.22,2.07-2.22h22.65Z"/>
    <path class="cls-1" d="M439.25,93.15v40.42h-15.25v-40.42h-22.35l-4.96-12.88v-.59h71.43c1.48,0,2.15.74,2.15,2.22v13.99l-14.14,5.26h-.59v-7.18c0-.59-.22-.81-.81-.81h-15.47Z"/>
  </g>
</svg>