<?xml version="1.0" encoding="UTF-8"?>
<svg id="Layer_1" data-name="Layer 1" xmlns="http://www.w3.org/2000/svg" xmlns:xlink="http://www.w3.org/1999/xlink" viewBox="0 0 145.21 143.06">
  <defs>
    <style>
      .cls-1 {
        fill: url(#linear-gradient);
      }

      .cls-1, .cls-2, .cls-3, .cls-4, .cls-5 {
        stroke-width: 0px;
      }

      .cls-2 {
        fill: url(#linear-gradient-4);
      }

      .cls-3 {
        fill: url(#linear-gradient-2);
      }

      .cls-4 {
        fill: url(#linear-gradient-3);
      }

      .cls-5 {
        fill: #fff;
      }
    </style>
    <linearGradient id="linear-gradient" x1="134.91" y1="110.42" x2="39.41" y2="110.42" gradientUnits="userSpaceOnUse">
      <stop offset="0" stop-color="#a7153d"/>
      <stop offset=".4" stop-color="#b33951"/>
      <stop offset=".78" stop-color="#bd5761"/>
      <stop offset="1" stop-color="#c16268"/>
    </linearGradient>
    <linearGradient id="linear-gradient-2" x1="134.91" y1="67.34" x2="39.41" y2="67.34" xlink:href="#linear-gradient"/>
    <linearGradient id="linear-gradient-3" x1="134.91" y1="29.17" x2="39.41" y2="29.17" xlink:href="#linear-gradient"/>
    <linearGradient id="linear-gradient-4" x1="79.3" y1="71.71" x2="27.79" y2="71.71" gradientUnits="userSpaceOnUse">
      <stop offset="0" stop-color="#5268ba"/>
      <stop offset=".21" stop-color="#4762b6"/>
      <stop offset=".57" stop-color="#2953ae"/>
      <stop offset="1" stop-color="#003fa2"/>
    </linearGradient>
  </defs>
  <path class="cls-1" d="M117.87,102.68h-54.14v31h57.22c8.85,0,16.03-7.06,16.03-15.76v-30.76c-1.72,8.84-9.61,15.52-19.11,15.52Z"/>
  <path class="cls-3" d="M77.12,81.26h31.66c2.48,0,4.49-1.98,4.49-4.42v-19.03c0-2.44-2.01-4.42-4.49-4.42h-30.67l13.43,13.43-14.42,14.42Z"/>
  <path class="cls-4" d="M120.35,9.25H36.72l23.34,23.51h57.06c9.99,0,18.29,7.03,20.1,16.33v-23.25c0-9.16-7.55-16.59-16.87-16.59Z"/>
  <path class="cls-2" d="M86.37,66.84l-13.43-13.43h-24.97l-.19-9.98-6.4,9.98h-8.18v-20.64h21.68L31.95,9.62h-8.29c-1.96,0-3.93.31-5.73,1.11-.01,0-.02,0-.03.01-5.84,2.61-9.9,8.38-9.9,15.1v91.37c0,9.16,7.55,16.59,16.87,16.59h8.34v-52.54h9.64l5.78,5.31-.11-5.31h23.44l14.42-14.42Z"/>
  <polygon class="cls-5" points="60.59 61.5 46.8 69.57 47.06 83.16 37.92 74.76 24.35 82.69 32.58 69.85 23.49 61.5 37.94 61.5 46.38 48.33 46.64 61.5 60.59 61.5"/>
</svg>