<?xml version="1.0" encoding="UTF-8"?>
<svg id="Layer_1" data-name="Layer 1" xmlns="http://www.w3.org/2000/svg" viewBox="0 0 145.21 143.06">
  <defs>
    <style>
      .cls-1 {
        fill: #fff;
        stroke-width: 0px;
      }
    </style>
  </defs>
  <path class="cls-1" d="M117.87,102.68h-54.14v31h57.22c8.85,0,16.03-7.06,16.03-15.76v-30.76c-1.72,8.84-9.61,15.52-19.11,15.52Z"/>
  <path class="cls-1" d="M77.12,81.26h31.66c2.48,0,4.49-1.98,4.49-4.42v-19.03c0-2.44-2.01-4.42-4.49-4.42h-30.67l13.43,13.43-14.42,14.42Z"/>
  <path class="cls-1" d="M120.35,9.25H36.72l23.34,23.51h57.06c9.99,0,18.29,7.03,20.1,16.33v-23.25c0-9.16-7.55-16.59-16.87-16.59Z"/>
  <path class="cls-1" d="M86.37,66.84l-13.43-13.43h-24.97l-.19-9.98-6.4,9.98h-8.18v-20.64h21.68L31.95,9.62h-8.29c-1.96,0-3.93.31-5.73,1.11-.01,0-.02,0-.03.01-5.84,2.61-9.9,8.38-9.9,15.1v91.37c0,9.16,7.55,16.59,16.87,16.59h8.34v-52.54h9.64l5.78,5.31-.11-5.31h23.44l14.42-14.42ZM46.8,69.56l.26,13.59-9.14-8.4-13.57,7.94,8.23-12.84-9.09-8.35h14.45l8.45-13.17.26,13.17h13.95l-13.79,8.06Z"/>
</svg>