<?xml version="1.0" encoding="UTF-8"?>
<svg id="Layer_1" data-name="Layer 1" xmlns="http://www.w3.org/2000/svg" viewBox="0 0 227.69 214.21">
  <defs>
    <style>
      .cls-1 {
        fill: #a7153d;
      }

      .cls-1, .cls-2 {
        stroke-width: 0px;
      }

      .cls-2 {
        fill: #003fa2;
      }
    </style>
  </defs>
  <g>
    <path class="cls-2" d="M15.15,160.33h-.27v14.17h-8v-27.1c0-.78.35-1.16,1.13-1.16h30.12c.78,0,1.13.39,1.13,1.16v7.61l-7.38,2.48h-.35v-3.77c0-.31-.12-.43-.35-.43h-15.57c-.54,0-.74.19-.74.7v5.59h12.97v6.33h-10.6l-2.1-5.59Z"/>
    <path class="cls-2" d="M42.63,174.5h-9.24v-.31l14.17-27.02c.35-.7.58-.93,1.48-.93h9.74c.89,0,1.17.23,1.55.93l14.05,27.02v.31h-24.18l-2.33-6.13v-.78h7.92c3.34,0,4.74.04,6.06.16l.12-.27c-.66-1.13-1.2-1.98-2.83-5.28l-4.46-8.93c-.12-.19-.27-.27-.54-.27h-.47c-.23,0-.39.08-.5.27l-10.52,21.23Z"/>
    <path class="cls-2" d="M114.87,174.5v-21.23c0-.39-.19-.62-.58-.62h-.43c-.35,0-.58.19-.7.5l-7.73,20.46c-.27.7-.7.89-1.51.89h-9.2c-.85,0-1.24-.19-1.51-.89l-7.69-20.46c-.12-.31-.35-.5-.74-.5h-.39c-.39,0-.62.23-.62.62v21.23h-7.49v-27.1c0-.78.35-1.16,1.09-1.16h12.77c.89,0,1.4.39,1.63,1.05l6.95,20.19c.04.16.16.23.39.23h.7c.19,0,.27-.08.31-.23l6.99-20.19c.23-.66.7-1.05,1.59-1.05h12.62c.74,0,1.09.39,1.09,1.16v27.1h-7.53Z"/>
    <path class="cls-2" d="M125.63,174.5v-28.26h8v28.26h-8Z"/>
    <path class="cls-2" d="M144.84,146.24v19.95c0,.62.23.93.93.93h22.13v7.38h-29c-1.51,0-2.06-.78-2.06-2.17v-26.09h8Z"/>
    <path class="cls-2" d="M169.88,174.5v-28.26h8v28.26h-8Z"/>
    <path class="cls-2" d="M189.06,174.5h-9.24v-.31l14.17-27.02c.35-.7.58-.93,1.48-.93h9.74c.89,0,1.17.23,1.55.93l14.05,27.02v.31h-24.18l-2.33-6.13v-.78h7.92c3.34,0,4.74.04,6.06.16l.12-.27c-.66-1.13-1.2-1.98-2.83-5.28l-4.46-8.93c-.12-.19-.27-.27-.54-.27h-.47c-.23,0-.39.08-.5.27l-10.52,21.23Z"/>
  </g>
  <g>
    <path class="cls-1" d="M52.85,196.28h-.24v10.73h-6.93v-23.48c0-.67.3-1.01.98-1.01h18.98c6.66,0,9.08,3.3,9.08,8.71v1.98c0,5.62-2.49,8.41-8.75,8.41h-11.07l-2.05-5.35ZM53.05,188.64c-.3,0-.44.17-.44.47v6.53h12.15c2.22,0,3.03-.84,3.03-2.86v-1.21c0-2.29-.81-2.93-3.03-2.93h-11.71Z"/>
    <path class="cls-1" d="M83.7,195.2v11.81h-6.93v-23.48c0-.67.3-1.01.94-1.01h19.14c6.09,0,8.28,2.99,8.28,7.84v1.75c0,4.74-2.19,7.67-8.01,7.67h-.71c-.67,0-1.18,0-1.65-.03v.24c.57.54,1.18,1.21,1.72,1.88l3.9,4.88v.27h-7.81l-8.65-11.81h-.24ZM84.17,188.64c-.27,0-.47.17-.47.57v5.35h11.91c1.82,0,2.56-.61,2.56-2.59v-.84c0-1.88-.74-2.49-2.56-2.49h-11.44Z"/>
    <path class="cls-1" d="M107.08,207.01v-24.49h6.93v24.49h-6.93Z"/>
    <path class="cls-1" d="M128.04,182.52c1.01,0,1.35.3,1.68.98l9.29,17.6c.13.24.34.4.64.4h.37c.34,0,.54-.2.54-.54v-18.44h6.29v23.52c0,.64-.3.98-.94.98h-9.96c-.94,0-1.31-.24-1.72-.98l-9.62-17.56c-.13-.27-.3-.4-.64-.4h-.34c-.37,0-.54.2-.54.54v18.4h-6.29v-23.48c0-.67.3-1.01.94-1.01h10.3Z"/>
    <path class="cls-1" d="M167.51,188.64v18.37h-6.93v-18.37h-10.16l-2.25-5.85v-.27h32.47c.67,0,.98.34.98,1.01v6.36l-6.43,2.39h-.27v-3.26c0-.27-.1-.37-.37-.37h-7.03Z"/>
  </g>
  <g>
    <path class="cls-1" d="M158.47,100.63h-54.14v31h57.22c8.85,0,16.03-7.06,16.03-15.76v-30.76c-1.72,8.84-9.61,15.52-19.11,15.52Z"/>
    <path class="cls-1" d="M117.72,79.21h31.66c2.48,0,4.49-1.98,4.49-4.42v-19.03c0-2.44-2.01-4.42-4.49-4.42h-30.67l13.43,13.43-14.42,14.42Z"/>
    <path class="cls-1" d="M160.95,7.2h-83.63l23.34,23.51h57.06c9.99,0,18.29,7.03,20.1,16.33v-23.25c0-9.16-7.55-16.59-16.87-16.59Z"/>
    <path class="cls-2" d="M126.97,64.79l-13.43-13.43h-24.97l-.19-9.98-6.4,9.98h-8.18v-20.64h21.68l-22.93-23.14h-8.29c-1.96,0-3.93.31-5.73,1.11-.01,0-.02,0-.03.01-5.84,2.61-9.9,8.38-9.9,15.1v91.37c0,9.16,7.55,16.59,16.87,16.59h8.34v-52.54h9.64l5.78,5.31-.11-5.31h23.44l14.42-14.42ZM87.4,67.51l.26,13.59-9.14-8.4-13.57,7.94,8.23-12.84-9.09-8.35h14.45l8.45-13.17.26,13.17h13.95l-13.79,8.06Z"/>
  </g>
</svg>