<?xml version="1.0" encoding="UTF-8"?>
<svg id="Layer_1" data-name="Layer 1" xmlns="http://www.w3.org/2000/svg" xmlns:xlink="http://www.w3.org/1999/xlink" viewBox="0 0 227.69 214.21">
  <defs>
    <style>
      .cls-1 {
        fill: url(#linear-gradient);
      }

      .cls-1, .cls-2, .cls-3, .cls-4, .cls-5, .cls-6, .cls-7, .cls-8, .cls-9, .cls-10, .cls-11, .cls-12, .cls-13, .cls-14, .cls-15, .cls-16, .cls-17 {
        stroke-width: 0px;
      }

      .cls-2 {
        fill: url(#linear-gradient-11);
      }

      .cls-3 {
        fill: url(#linear-gradient-12);
      }

      .cls-4 {
        fill: url(#linear-gradient-13);
      }

      .cls-5 {
        fill: url(#linear-gradient-10);
      }

      .cls-6 {
        fill: url(#linear-gradient-16);
      }

      .cls-7 {
        fill: url(#linear-gradient-15);
      }

      .cls-8 {
        fill: url(#linear-gradient-14);
      }

      .cls-9 {
        fill: url(#linear-gradient-4);
      }

      .cls-10 {
        fill: url(#linear-gradient-2);
      }

      .cls-11 {
        fill: url(#linear-gradient-3);
      }

      .cls-12 {
        fill: url(#linear-gradient-8);
      }

      .cls-13 {
        fill: url(#linear-gradient-9);
      }

      .cls-14 {
        fill: url(#linear-gradient-7);
      }

      .cls-15 {
        fill: url(#linear-gradient-5);
      }

      .cls-16 {
        fill: url(#linear-gradient-6);
      }

      .cls-17 {
        fill: #fff;
      }
    </style>
    <linearGradient id="linear-gradient" x1="23.06" y1="146.64" x2="23.06" y2="169.48" gradientUnits="userSpaceOnUse">
      <stop offset="0" stop-color="#5268ba"/>
      <stop offset=".21" stop-color="#4762b6"/>
      <stop offset=".57" stop-color="#2953ae"/>
      <stop offset="1" stop-color="#003fa2"/>
    </linearGradient>
    <linearGradient id="linear-gradient-2" x1="53.89" y1="146.64" x2="53.89" y2="169.48" xlink:href="#linear-gradient"/>
    <linearGradient id="linear-gradient-3" x1="99.35" y1="146.64" x2="99.35" y2="169.48" xlink:href="#linear-gradient"/>
    <linearGradient id="linear-gradient-4" x1="129.63" y1="146.64" x2="129.63" y2="169.48" xlink:href="#linear-gradient"/>
    <linearGradient id="linear-gradient-5" x1="152.37" y1="146.64" x2="152.37" y2="169.48" xlink:href="#linear-gradient"/>
    <linearGradient id="linear-gradient-6" x1="173.88" y1="146.64" x2="173.88" y2="169.48" xlink:href="#linear-gradient"/>
    <linearGradient id="linear-gradient-7" x1="200.32" y1="146.64" x2="200.32" y2="169.48" xlink:href="#linear-gradient"/>
    <linearGradient id="linear-gradient-8" x1="60.2" y1="197.86" x2="60.2" y2="182.64" gradientUnits="userSpaceOnUse">
      <stop offset="0" stop-color="#a7153d"/>
      <stop offset=".4" stop-color="#b33951"/>
      <stop offset=".78" stop-color="#bd5761"/>
      <stop offset="1" stop-color="#c16268"/>
    </linearGradient>
    <linearGradient id="linear-gradient-9" x1="90.95" y1="197.86" x2="90.95" y2="182.64" xlink:href="#linear-gradient-8"/>
    <linearGradient id="linear-gradient-10" x1="110.55" y1="197.86" x2="110.55" y2="182.64" xlink:href="#linear-gradient-8"/>
    <linearGradient id="linear-gradient-11" x1="131.83" y1="197.86" x2="131.83" y2="182.64" xlink:href="#linear-gradient-8"/>
    <linearGradient id="linear-gradient-12" x1="164.88" y1="197.86" x2="164.88" y2="182.64" xlink:href="#linear-gradient-8"/>
    <linearGradient id="linear-gradient-13" x1="175.51" y1="108.37" x2="80.01" y2="108.37" xlink:href="#linear-gradient-8"/>
    <linearGradient id="linear-gradient-14" x1="175.51" y1="65.28" x2="80.01" y2="65.28" xlink:href="#linear-gradient-8"/>
    <linearGradient id="linear-gradient-15" x1="175.51" y1="27.12" x2="80.01" y2="27.12" xlink:href="#linear-gradient-8"/>
    <linearGradient id="linear-gradient-16" x1="119.9" y1="69.66" x2="68.39" y2="69.66" xlink:href="#linear-gradient"/>
  </defs>
  <g>
    <path class="cls-1" d="M15.15,160.33h-.27v14.17h-8v-27.1c0-.78.35-1.16,1.13-1.16h30.12c.78,0,1.13.39,1.13,1.16v7.61l-7.38,2.48h-.35v-3.77c0-.31-.12-.43-.35-.43h-15.57c-.54,0-.74.19-.74.7v5.59h12.97v6.33h-10.6l-2.1-5.59Z"/>
    <path class="cls-10" d="M42.63,174.5h-9.24v-.31l14.17-27.02c.35-.7.58-.93,1.48-.93h9.74c.89,0,1.17.23,1.55.93l14.05,27.02v.31h-24.18l-2.33-6.13v-.78h7.92c3.34,0,4.74.04,6.06.16l.12-.27c-.66-1.13-1.2-1.98-2.83-5.28l-4.46-8.93c-.12-.19-.27-.27-.54-.27h-.47c-.23,0-.39.08-.5.27l-10.52,21.23Z"/>
    <path class="cls-11" d="M114.87,174.5v-21.23c0-.39-.19-.62-.58-.62h-.43c-.35,0-.58.19-.7.5l-7.73,20.46c-.27.7-.7.89-1.51.89h-9.2c-.85,0-1.24-.19-1.51-.89l-7.69-20.46c-.12-.31-.35-.5-.74-.5h-.39c-.39,0-.62.23-.62.62v21.23h-7.49v-27.1c0-.78.35-1.16,1.09-1.16h12.77c.89,0,1.4.39,1.63,1.05l6.95,20.19c.04.16.16.23.39.23h.7c.19,0,.27-.08.31-.23l6.99-20.19c.23-.66.7-1.05,1.59-1.05h12.62c.74,0,1.09.39,1.09,1.16v27.1h-7.53Z"/>
    <path class="cls-9" d="M125.63,174.5v-28.26h8v28.26h-8Z"/>
    <path class="cls-15" d="M144.84,146.24v19.95c0,.62.23.93.93.93h22.13v7.38h-29c-1.51,0-2.06-.78-2.06-2.17v-26.09h8Z"/>
    <path class="cls-16" d="M169.88,174.5v-28.26h8v28.26h-8Z"/>
    <path class="cls-14" d="M189.06,174.5h-9.24v-.31l14.17-27.02c.35-.7.58-.93,1.48-.93h9.74c.89,0,1.17.23,1.55.93l14.05,27.02v.31h-24.18l-2.33-6.13v-.78h7.92c3.34,0,4.74.04,6.06.16l.12-.27c-.66-1.13-1.2-1.98-2.83-5.28l-4.46-8.93c-.12-.19-.27-.27-.54-.27h-.47c-.23,0-.39.08-.5.27l-10.52,21.23Z"/>
  </g>
  <g>
    <path class="cls-12" d="M52.85,196.28h-.24v10.73h-6.93v-23.48c0-.67.3-1.01.98-1.01h18.98c6.66,0,9.08,3.3,9.08,8.71v1.98c0,5.62-2.49,8.41-8.75,8.41h-11.07l-2.05-5.35ZM53.05,188.64c-.3,0-.44.17-.44.47v6.53h12.15c2.22,0,3.03-.84,3.03-2.86v-1.21c0-2.29-.81-2.93-3.03-2.93h-11.71Z"/>
    <path class="cls-13" d="M83.7,195.2v11.81h-6.93v-23.48c0-.67.3-1.01.94-1.01h19.14c6.09,0,8.28,2.99,8.28,7.84v1.75c0,4.74-2.19,7.67-8.01,7.67h-.71c-.67,0-1.18,0-1.65-.03v.24c.57.54,1.18,1.21,1.72,1.88l3.9,4.88v.27h-7.81l-8.65-11.81h-.24ZM84.17,188.64c-.27,0-.47.17-.47.57v5.35h11.91c1.82,0,2.56-.61,2.56-2.59v-.84c0-1.88-.74-2.49-2.56-2.49h-11.44Z"/>
    <path class="cls-5" d="M107.08,207.01v-24.49h6.93v24.49h-6.93Z"/>
    <path class="cls-2" d="M128.04,182.52c1.01,0,1.35.3,1.68.98l9.29,17.6c.13.24.34.4.64.4h.37c.34,0,.54-.2.54-.54v-18.44h6.29v23.52c0,.64-.3.98-.94.98h-9.96c-.94,0-1.31-.24-1.72-.98l-9.62-17.56c-.13-.27-.3-.4-.64-.4h-.34c-.37,0-.54.2-.54.54v18.4h-6.29v-23.48c0-.67.3-1.01.94-1.01h10.3Z"/>
    <path class="cls-3" d="M167.51,188.64v18.37h-6.93v-18.37h-10.16l-2.25-5.85v-.27h32.47c.67,0,.98.34.98,1.01v6.36l-6.43,2.39h-.27v-3.26c0-.27-.1-.37-.37-.37h-7.03Z"/>
  </g>
  <g>
    <path class="cls-4" d="M158.47,100.63h-54.14v31h57.22c8.85,0,16.03-7.06,16.03-15.76v-30.76c-1.72,8.84-9.61,15.52-19.11,15.52Z"/>
    <path class="cls-8" d="M117.72,79.21h31.66c2.48,0,4.49-1.98,4.49-4.42v-19.03c0-2.44-2.01-4.42-4.49-4.42h-30.67l13.43,13.43-14.42,14.42Z"/>
    <path class="cls-7" d="M160.95,7.2h-83.63l23.34,23.51h57.06c9.99,0,18.29,7.03,20.1,16.33v-23.25c0-9.16-7.55-16.59-16.87-16.59Z"/>
    <path class="cls-6" d="M126.97,64.79l-13.43-13.43h-24.97l-.19-9.98-6.4,9.98h-8.18v-20.64h21.68l-22.93-23.14h-8.29c-1.96,0-3.93.31-5.73,1.11-.01,0-.02,0-.03.01-5.84,2.61-9.9,8.38-9.9,15.1v91.37c0,9.16,7.55,16.59,16.87,16.59h8.34v-52.54h9.64l5.78,5.31-.11-5.31h23.44l14.42-14.42Z"/>
  </g>
  <polygon class="cls-17" points="87.4 67.51 87.66 81.1 78.52 72.7 64.95 80.63 73.18 67.8 64.09 59.44 78.54 59.44 86.98 46.27 87.24 59.44 101.19 59.44 87.4 67.51"/>
</svg>